<svg width="19" height="20" viewBox="0 0 19 20" fill="none" xmlns="http://www.w3.org/2000/svg">
<path d="M17.8355 6.78707C17.6935 6.51181 17.4964 6.28502 17.2447 6.10725C17.2446 6.10718 17.2445 6.1071 17.2444 6.10702L10.7061 1.33751L10.706 1.33743C10.35 1.07914 9.9462 0.95 9.49636 0.95C9.04653 0.95 8.64508 1.07914 8.29377 1.3376C8.29375 1.33761 8.29374 1.33762 8.29373 1.33763L1.75553 6.10824C1.75544 6.10831 1.75534 6.10837 1.75525 6.10844C1.50437 6.28619 1.30733 6.51256 1.1645 6.78699C1.02158 7.0616 0.95 7.35304 0.95 7.66064V17.83C0.95 18.1582 1.07733 18.4443 1.32838 18.6862C1.5794 18.928 1.87545 19.05 2.21429 19.05H6.93179C7.22147 19.05 7.46692 18.9551 7.66469 18.7646C7.8626 18.5739 7.96171 18.3361 7.96171 18.0547V12.1659H11.0383V18.0547C11.0383 18.3354 11.1374 18.5731 11.3352 18.7645L11.3353 18.7646C11.5331 18.9552 11.779 19.05 12.0694 19.05H16.7857C17.1245 19.05 17.4206 18.928 17.6716 18.6862C17.9227 18.4443 18.05 18.1582 18.05 17.83V7.66064C18.05 7.35307 17.9784 7.06166 17.8355 6.78707ZM17.8355 6.78707C17.8356 6.7871 17.8356 6.78712 17.8356 6.78715L17.7912 6.81005L17.8355 6.78699C17.8355 6.78702 17.8355 6.78705 17.8355 6.78707ZM9.91231 2.36623L9.91223 2.36633L9.91505 2.36837L16.452 7.11559C16.5406 7.1849 16.6099 7.26543 16.6606 7.35721C16.7105 7.44757 16.7357 7.54837 16.7357 7.66064V17.78H12.3526V11.8901C12.3526 11.6094 12.2534 11.372 12.0555 11.1813C11.857 10.9901 11.6112 10.8948 11.3214 10.8948H7.67857C7.3889 10.8948 7.14347 10.99 6.94574 11.1813C6.74704 11.3719 6.64743 11.6093 6.64743 11.8901V17.78H2.26429L2.26429 7.66064L2.26428 7.66031C2.26353 7.54657 2.28879 7.44617 2.3391 7.35778C2.39063 7.26725 2.46013 7.18643 2.54824 7.11538L9.08616 2.36838L9.08624 2.36848L9.08903 2.36613C9.20331 2.2697 9.33943 2.22114 9.5 2.22114C9.66057 2.22114 9.79716 2.2697 9.91231 2.36623Z" fill="#8BD0FF" stroke="#8BD0FF" stroke-width="0.1"/>
</svg>
