<svg width="17" height="18" viewBox="0 0 17 18" fill="none" xmlns="http://www.w3.org/2000/svg">
<path d="M8.4997 2.44314e-07C9.61087 -0.000340704 10.6929 0.356181 11.5869 1.01724C12.481 1.67829 13.14 2.60907 13.4672 3.67294C13.7945 4.73682 13.7727 5.87777 13.4051 6.92834C13.0375 7.9789 12.3434 8.88374 11.4248 9.51005C13.0193 10.096 14.4022 11.1466 15.3957 12.5267C16.3891 13.9067 16.9475 15.5531 16.9991 17.2538C17.0039 17.3482 16.9898 17.4427 16.9578 17.5315C16.9257 17.6204 16.8762 17.702 16.8122 17.7715C16.7482 17.841 16.671 17.8969 16.5852 17.9361C16.4993 17.9753 16.4065 17.9969 16.3122 17.9997C16.2179 18.0025 16.124 17.9863 16.036 17.9523C15.948 17.9182 15.8676 17.8669 15.7997 17.8013C15.7318 17.7357 15.6776 17.6571 15.6403 17.5703C15.6031 17.4834 15.5835 17.39 15.5828 17.2955C15.5266 15.4511 14.7557 13.7011 13.4336 12.4164C12.1115 11.1317 10.342 10.4132 8.50017 10.4132C6.65834 10.4132 4.88887 11.1317 3.56676 12.4164C2.24464 13.7011 1.47377 15.4511 1.41751 17.2955C1.41187 17.4838 1.33181 17.6621 1.19494 17.7912C1.05806 17.9204 0.875589 17.9898 0.687658 17.9841C0.499726 17.9785 0.321732 17.8982 0.192831 17.7611C0.0639298 17.624 -0.00531878 17.4412 0.000319163 17.2529C0.0520449 15.5523 0.610557 13.9061 1.60398 12.5263C2.5974 11.1464 3.98027 10.0959 5.57461 9.51005C4.65597 8.88374 3.96192 7.9789 3.59432 6.92834C3.22672 5.87777 3.20494 4.73682 3.53216 3.67294C3.85939 2.60907 4.51839 1.67829 5.41245 1.01724C6.3065 0.356181 7.38852 -0.000340704 8.4997 2.44314e-07ZM4.72052 5.20606C4.72052 6.21023 5.11868 7.17327 5.82741 7.88333C6.53615 8.59338 7.4974 8.99229 8.4997 8.99229C9.502 8.99229 10.4632 8.59338 11.172 7.88333C11.8807 7.17327 12.2789 6.21023 12.2789 5.20606C12.2789 4.20189 11.8807 3.23885 11.172 2.5288C10.4632 1.81874 9.502 1.41984 8.4997 1.41984C7.4974 1.41984 6.53615 1.81874 5.82741 2.5288C5.11868 3.23885 4.72052 4.20189 4.72052 5.20606Z" fill="#8BD0FF"/>
</svg>
