<svg width="17" height="17" viewBox="0 0 17 17" fill="none" xmlns="http://www.w3.org/2000/svg">
<path d="M5.60665 0.693729H1.26602C0.930249 0.693729 0.608233 0.821663 0.370808 1.04939C0.133384 1.27711 0 1.58597 0 1.90803V15.7857C0 16.1078 0.133384 16.4166 0.370808 16.6443C0.608233 16.8721 0.930249 17 1.26602 17H5.60665C5.77291 17 5.93754 16.9686 6.09114 16.9076C6.24474 16.8465 6.3843 16.7571 6.50186 16.6443C6.61942 16.5316 6.71268 16.3977 6.7763 16.2504C6.83992 16.1031 6.87267 15.9452 6.87267 15.7857V1.90803C6.87267 1.74856 6.83992 1.59066 6.7763 1.44333C6.71268 1.29601 6.61942 1.16215 6.50186 1.04939C6.3843 0.93663 6.24474 0.847185 6.09114 0.786161C5.93754 0.725137 5.77291 0.693729 5.60665 0.693729ZM1.08516 4.51009H5.78751V13.1836H1.08516V4.51009ZM1.26602 1.73455H5.60665C5.65462 1.73455 5.70062 1.75283 5.73454 1.78536C5.76846 1.8179 5.78751 1.86202 5.78751 1.90803V3.46926H1.08516V1.90803C1.08516 1.86202 1.10421 1.8179 1.13813 1.78536C1.17205 1.75283 1.21805 1.73455 1.26602 1.73455ZM5.60665 15.9592H1.26602C1.21805 15.9592 1.17205 15.9409 1.13813 15.9084C1.10421 15.8758 1.08516 15.8317 1.08516 15.7857V14.2245H5.78751V15.7857C5.78751 15.8317 5.76846 15.8758 5.73454 15.9084C5.70062 15.9409 5.65462 15.9592 5.60665 15.9592ZM16.9737 14.6581L13.9723 0.967813C13.9384 0.811087 13.8726 0.662331 13.7786 0.530099C13.6846 0.397867 13.5642 0.28477 13.4244 0.197311C13.2847 0.109852 13.1283 0.0497569 12.9642 0.0204828C12.8001 -0.00879138 12.6317 -0.00666741 12.4685 0.0267327L8.23545 0.899292C7.90785 0.96836 7.62186 1.15855 7.43952 1.42858C7.25719 1.69862 7.19323 2.02672 7.26152 2.3417L10.2629 16.0294C10.297 16.1867 10.3634 16.3359 10.4581 16.4684C10.5527 16.6009 10.6739 16.7141 10.8145 16.8014C11.018 16.9291 11.2559 16.9972 11.4991 16.9974C11.5903 16.9978 11.6813 16.9885 11.7704 16.9696L16.0034 16.098C16.3297 16.0281 16.6144 15.838 16.7959 15.5686C16.9774 15.2993 17.0413 14.9722 16.9737 14.6581ZM9.48519 7.43134L14.0727 6.48592L15.3496 12.3111L10.7612 13.2539L9.48519 7.43134ZM8.88564 4.69397L13.4741 3.74595L13.8493 5.46418L9.26183 6.4096L8.88564 4.69397ZM8.46424 1.91843L12.6964 1.04674C12.709 1.04546 12.7217 1.04546 12.7343 1.04674C12.7681 1.04683 12.8012 1.05649 12.8293 1.0745C12.8501 1.08718 12.8679 1.1038 12.8818 1.12334C12.8956 1.14288 12.9051 1.16492 12.9098 1.18812L13.2489 2.73375L8.66228 3.67222L8.32407 2.13007C8.31351 2.08397 8.32229 2.03574 8.34852 1.99581C8.37475 1.95587 8.41632 1.92745 8.46424 1.9167V1.91843ZM15.7719 15.0849L11.5389 15.9592C11.5162 15.964 11.4927 15.9644 11.4699 15.9604C11.4471 15.9564 11.4253 15.948 11.4059 15.9358C11.3851 15.9231 11.3673 15.9064 11.3535 15.8869C11.3396 15.8674 11.3301 15.8453 11.3254 15.8221L10.9863 14.2765L15.5729 13.3311L15.9157 14.8689C15.921 14.892 15.9215 14.9159 15.9171 14.9393C15.9127 14.9626 15.9036 14.9848 15.8903 15.0047C15.8769 15.0246 15.8595 15.0418 15.8392 15.0553C15.8189 15.0687 15.796 15.0782 15.7719 15.0831V15.0849Z" fill="#8BD0FF"/>
</svg>
