<svg width="34" height="34" viewBox="0 0 34 34" fill="none" xmlns="http://www.w3.org/2000/svg">
<rect width="34" height="34" rx="5" fill="#2BA9FF"/>
<path d="M13.25 13C13.25 12.8011 13.329 12.6103 13.4697 12.4697C13.6103 12.329 13.8011 12.25 14 12.25H21C21.1989 12.25 21.3897 12.329 21.5303 12.4697C21.671 12.6103 21.75 12.8011 21.75 13C21.75 13.1989 21.671 13.3897 21.5303 13.5303C21.3897 13.671 21.1989 13.75 21 13.75H14C13.8011 13.75 13.6103 13.671 13.4697 13.5303C13.329 13.3897 13.25 13.1989 13.25 13ZM14 15.25C13.8011 15.25 13.6103 15.329 13.4697 15.4697C13.329 15.6103 13.25 15.8011 13.25 16C13.25 16.1989 13.329 16.3897 13.4697 16.5303C13.6103 16.671 13.8011 16.75 14 16.75H19C19.1989 16.75 19.3897 16.671 19.5303 16.5303C19.671 16.3897 19.75 16.1989 19.75 16C19.75 15.8011 19.671 15.6103 19.5303 15.4697C19.3897 15.329 19.1989 15.25 19 15.25H14Z" fill="white"/>
<path fill-rule="evenodd" clip-rule="evenodd" d="M13.5 8.25C12.2402 8.25 11.032 8.75045 10.1412 9.64124C9.25045 10.532 8.75 11.7402 8.75 13V23C8.75 23.9946 9.14509 24.9484 9.84835 25.6517C10.5516 26.3549 11.5054 26.75 12.5 26.75H23.5C23.9641 26.75 24.4092 26.5656 24.7374 26.2374C25.0656 25.9092 25.25 25.4641 25.25 25V10C25.25 9.53587 25.0656 9.09075 24.7374 8.76256C24.4092 8.43437 23.9641 8.25 23.5 8.25H13.5ZM23.75 19.25V10C23.75 9.9337 23.7237 9.87011 23.6768 9.82322C23.6299 9.77634 23.5663 9.75 23.5 9.75H13.5C12.638 9.75 11.8114 10.0924 11.2019 10.7019C10.5924 11.3114 10.25 12.138 10.25 13V20C10.8984 19.5119 11.6884 19.2485 12.5 19.25H23.75ZM23.75 20.75H12.5C11.9033 20.75 11.331 20.9871 10.909 21.409C10.4871 21.831 10.25 22.4033 10.25 23C10.25 23.5967 10.4871 24.169 10.909 24.591C11.331 25.0129 11.9033 25.25 12.5 25.25H23.5C23.5663 25.25 23.6299 25.2237 23.6768 25.1768C23.7237 25.1299 23.75 25.0663 23.75 25V20.75Z" fill="white"/>
</svg>
